<svg width="657" height="595" viewBox="0 0 657 595" fill="none" xmlns="http://www.w3.org/2000/svg">
<path d="M237.763 58.9343C277.774 126.355 379.862 265.721 468.131 283.823C565.817 286.281 732.108 333.862 615.775 504.522C531.546 628.085 163.688 667.25 19.3691 326.151C-8.50944 239.077 -24.5357 57.7304 124.927 4.60787C127.168 3.8111 129.447 3.44328 131.764 2.98984L135.641 2.07228C139.55 1.85274 144.09 0.853249 149.05 1.10742C178.722 2.6282 223.408 14.4874 237.763 58.9343Z" fill="#FDC021"/>
<path d="M135.641 2.07229C131.979 3.16766 128.408 3.37056 124.927 4.60786M135.641 2.07229L124.927 4.60786M135.641 2.07229C139.55 1.85274 144.09 0.853249 149.05 1.10743C178.722 2.62819 223.408 14.4874 237.763 58.9343C277.774 126.355 379.862 265.721 468.131 283.823C565.817 286.281 732.108 333.862 615.775 504.522C531.546 628.085 163.688 667.25 19.3691 326.151C-8.50945 239.077 -24.5357 57.7304 124.927 4.60786" stroke="#FDC221"/>
</svg>
